<?xml version="1.0" encoding="utf-8"?>
<!-- Generator: Adobe Illustrator 17.0.0, SVG Export Plug-In . SVG Version: 6.00 Build 0)  -->
<!DOCTYPE svg PUBLIC "-//W3C//DTD SVG 1.1//EN" "http://www.w3.org/Graphics/SVG/1.1/DTD/svg11.dtd">
<svg version="1.1" id="Слой_1" xmlns="http://www.w3.org/2000/svg" xmlns:xlink="http://www.w3.org/1999/xlink" x="0px" y="0px"
	 width="282.56px" height="40px" viewBox="0 0 282.56 40" enable-background="new 0 0 282.56 40" xml:space="preserve">
<path fill="#444444" d="M77.154,9.03h9.973c5.133,0,7.935,2.567,7.935,6.304c0,1.726-0.935,3.36-2.614,4.432
	c1.961,1.072,3.081,2.752,3.081,4.67c0,3.965-3.035,6.532-8.167,6.532H77.154V9.03z M87.361,17.897c1.633,0,3.031-0.7,3.031-2.334
	c0-1.632-1.167-2.52-3.031-2.52h-5.629v4.854H87.361z M87.829,26.954c1.862,0,3.029-1.122,3.029-2.519
	c0-1.869-1.399-2.569-3.029-2.569h-6.097v5.088H87.829z"/>
<path fill="#444444" d="M97.769,9.03h18.669v4.201h-7.002v17.736h-4.667V13.231h-7V9.03z"/>
<path fill="#444444" d="M129.383,8.563c6.069,0,11.438,4.668,11.438,11.436c0,6.768-5.368,11.436-11.438,11.436
	c-6.065,0-11.432-4.668-11.432-11.436C117.951,13.231,123.317,8.563,129.383,8.563z M129.383,27.233
	c4.438,0,6.771-3.267,6.771-7.234c0-3.968-2.334-7.234-6.771-7.234c-4.431,0-6.767,3.267-6.767,7.234
	C122.616,23.967,124.952,27.233,129.383,27.233z"/>
<path fill="#FF1D12" d="M200.738,17.76h2.629c2.334,0,3.501-1.029,3.501-2.426c0-1.402-1.167-2.614-3.733-2.614
	c-2.566,0-4.013,1.212-4.013,2.376h-4.389c0-3.265,3.735-6.532,8.401-6.532c4.668,0,8.171,2.801,8.171,6.532
	c0,1.87-0.983,3.599-2.71,4.717c1.913,1.025,3.176,2.705,3.176,4.853c0,3.501-3.034,6.77-8.637,6.77
	c-4.666,0-7.631-2.628-8.609-5.894l4.061-1.625c0.302,1.529,1.547,3.364,4.549,3.364c3.034,0,4.2-1.448,4.2-2.845
	c0-1.634-1.634-2.569-4.2-2.569h-2.396V17.76z"/>
<path fill="#FF1D12" d="M242.554,9.03h4.665v8.4h9.653v-8.4h4.67v21.938h-4.67v-9.335h-9.653v9.335h-4.665V9.03z"/>
<path fill="#FF1D12" d="M265.738,9.03h4.669v6.533h3.285c5.6,0,8.868,3.269,8.868,7.705c0,4.431-3.268,7.699-8.868,7.699h-7.954
	V9.03z M273.927,26.811c2.564,0,4.013-1.446,4.013-3.543c0-2.103-1.448-3.549-4.013-3.549h-3.52v7.092H273.927z"/>
<path fill="#444444" d="M61.544,8.563c-6.071,0-11.438,4.668-11.438,11.436v10.969h4.666v-6.717h13.538v6.717h4.664V19.999
	C72.975,13.231,67.608,8.563,61.544,8.563z M54.772,20.049v-0.05c0-3.968,2.334-7.234,6.771-7.234c4.432,0,6.765,3.267,6.765,7.234
	h0.002v0.05H54.772z"/>
<path fill="#FF1D12" d="M179.493,8.563c-6.066,0-11.435,4.668-11.435,11.436v10.969h4.667v-6.717h13.536v6.717h4.668V19.999
	C190.93,13.231,185.561,8.563,179.493,8.563z M172.726,20.049v-0.05c0-3.968,2.335-7.234,6.768-7.234
	c4.435,0,6.769,3.267,6.769,7.234l0,0v0.05H172.726z"/>
<path fill="#FF1D12" d="M226.918,8.563c-6.066,0-11.432,4.668-11.432,11.436v10.969h4.665v-6.717h13.538v6.717h4.665V19.999
	C238.355,13.231,232.989,8.563,226.918,8.563z M220.151,20.049v-0.05c0-3.968,2.336-7.234,6.767-7.234
	c4.436,0,6.771,3.267,6.771,7.234l0,0v0.05H220.151z"/>
<path fill="#FF1D12" d="M154.981,19.507l10.322,11.461h-6.063l-9.583-11.216l8.951-10.73h5.77L154.981,19.507z"/>
<g>
	<path fill="#FF1D12" d="M19.37,9.946L18.743,0c-0.923,0.055-1.827,0.172-2.709,0.351L18,10.114
		C18.445,10.025,18.905,9.975,19.37,9.946z"/>
	<path fill="#FF1D12" d="M12.434,13.349l-7.475-6.59c-0.6,0.685-1.156,1.406-1.661,2.169l8.294,5.513
		C11.85,14.055,12.131,13.693,12.434,13.349z"/>
	<path fill="#FF1D12" d="M22.002,10.114l1.969-9.764C23.086,0.172,22.181,0.055,21.257,0l-0.625,9.946
		C21.097,9.975,21.558,10.025,22.002,10.114z"/>
	<path fill="#FF1D12" d="M13.349,27.565L6.76,35.039c0.684,0.6,1.403,1.158,2.164,1.663l5.512-8.298
		C14.054,28.151,13.694,27.864,13.349,27.565z"/>
	<path fill="#FF1D12" d="M11.611,25.592l-8.294,5.514c0.506,0.76,1.063,1.477,1.666,2.161l7.475-6.59
		C12.154,26.333,11.867,25.976,11.611,25.592z"/>
	<path fill="#FF1D12" d="M16.782,10.447l-3.182-9.441c-0.868,0.292-1.709,0.641-2.522,1.047l4.43,8.927
		C15.919,10.776,16.342,10.596,16.782,10.447z"/>
	<path fill="#FF1D12" d="M10.969,15.537l-8.932-4.434c-0.402,0.813-0.749,1.657-1.038,2.526l9.441,3.177
		C10.586,16.371,10.765,15.944,10.969,15.537z"/>
	<path fill="#FF1D12" d="M10.112,18.025l-9.764-1.967C0.173,16.941,0.056,17.847,0,18.766l9.947,0.626
		C9.976,18.93,10.025,18.472,10.112,18.025z"/>
	<path fill="#FF1D12" d="M14.412,11.606L8.9,3.312C8.142,3.817,7.418,4.375,6.738,4.977l6.586,7.479
		C13.669,12.149,14.028,11.864,14.412,11.606z"/>
	<path fill="#FF1D12" d="M10.456,23.233L1.011,26.41c0.296,0.868,0.646,1.711,1.05,2.522l8.926-4.433
		C10.78,24.094,10.604,23.67,10.456,23.233z"/>
	<path fill="#FF1D12" d="M9.951,20.653L0.002,21.28c0.06,0.919,0.177,1.822,0.354,2.706l9.764-1.967
		C10.029,21.573,9.981,21.118,9.951,20.653z"/>
	<path fill="#FF1D12" d="M29.882,22.02l9.766,1.967c0.178-0.884,0.294-1.787,0.352-2.705l-9.944-0.628
		C30.023,21.118,29.975,21.573,29.882,22.02z"/>
	<path fill="#FF1D12" d="M27.543,26.678l7.478,6.589c0.601-0.682,1.156-1.401,1.662-2.161l-8.292-5.512
		C28.133,25.976,27.848,26.333,27.543,26.678z"/>
	<path fill="#FF1D12" d="M29.563,16.81l9.443-3.18c-0.294-0.869-0.642-1.713-1.043-2.525l-8.931,4.433
		C29.239,15.945,29.416,16.371,29.563,16.81z"/>
	<path fill="#FF1D12" d="M15.529,29.027l-4.433,8.93c0.811,0.401,1.653,0.749,2.522,1.039l3.178-9.441
		C16.359,29.409,15.936,29.229,15.529,29.027z"/>
	<path fill="#FF1D12" d="M29.015,24.501l8.931,4.434c0.402-0.812,0.752-1.654,1.043-2.521l-9.441-3.18
		C29.399,23.67,29.22,24.094,29.015,24.501z"/>
	<path fill="#FF1D12" d="M25.567,28.404l5.512,8.298c0.758-0.505,1.481-1.063,2.162-1.663l-6.587-7.474
		C26.31,27.865,25.951,28.151,25.567,28.404z"/>
	<path fill="#FF1D12" d="M30.057,19.393l9.946-0.627c-0.056-0.919-0.171-1.821-0.349-2.707l-9.765,1.967
		C29.979,18.472,30.027,18.932,30.057,19.393z"/>
	<path fill="#FF1D12" d="M28.413,14.44l8.295-5.513c-0.506-0.762-1.062-1.483-1.664-2.168l-7.476,6.589
		C27.875,13.693,28.158,14.055,28.413,14.44z"/>
	<path fill="#FF1D12" d="M18.01,29.885l-1.968,9.764c0.88,0.179,1.785,0.295,2.703,0.352l0.627-9.948
		C18.909,30.024,18.454,29.974,18.01,29.885z"/>
	<path fill="#FF1D12" d="M26.677,12.455l6.591-7.477c-0.684-0.602-1.403-1.16-2.166-1.666l-5.512,8.294
		C25.975,11.864,26.333,12.149,26.677,12.455z"/>
	<path fill="#FF1D12" d="M24.493,10.978l4.433-8.924c-0.811-0.407-1.656-0.756-2.526-1.048l-3.177,9.439
		C23.66,10.596,24.085,10.776,24.493,10.978z"/>
	<path fill="#FF1D12" d="M23.205,29.557l3.18,9.441c0.867-0.292,1.709-0.64,2.52-1.041l-4.43-8.93
		C24.065,29.229,23.643,29.409,23.205,29.557z"/>
	<path fill="#FF1D12" d="M20.629,30.052L21.254,40c0.922-0.057,1.824-0.173,2.706-0.352l-1.969-9.764
		C21.55,29.974,21.091,30.024,20.629,30.052z"/>
</g>
<rect x="144.697" y="8.925" fill="#FF1D12" width="4.669" height="21.938"/>
</svg>
